<?xml version="1.0" standalone="no"?>
<!DOCTYPE svg PUBLIC "-//W3C//DTD SVG 20010904//EN" "http://www.w3.org/TR/2001/REC-SVG-20010904/DTD/svg10.dtd">
<!-- Created using Krita: https://krita.org -->
<svg xmlns="http://www.w3.org/2000/svg" 
    xmlns:xlink="http://www.w3.org/1999/xlink"
    xmlns:krita="http://krita.org/namespaces/svg/krita"
    xmlns:sodipodi="http://sodipodi.sourceforge.net/DTD/sodipodi-0.dtd"
    width="1190.4pt"
    height="841.92pt"
    viewBox="0 0 1190.4 841.92">
<defs/>
<rect id="shape0" transform="translate(54.4800122070466, 52.3199914550886)" fill="none" stroke="#000000" stroke-width="4.8" stroke-linecap="square" stroke-linejoin="bevel" width="1081.43999999997" height="737.279999999979"/><rect id="shape01" transform="translate(71.0400122070461, 71.0399914550881)" fill="none" stroke="#000000" stroke-width="4.8" stroke-linecap="square" stroke-linejoin="bevel" width="1048.31999999997" height="699.83999999998"/><rect id="shape1" transform="translate(560.640012207031, 70.3199914550782)" fill="none" stroke="#000000" stroke-width="3.6" stroke-linecap="square" stroke-linejoin="bevel" width="69.12" height="701.28"/><rect id="shape02" transform="matrix(1 0 0 -1 560.640012207031 149.759999999996)" fill="#000000" stroke="none" stroke-width="3.6" stroke-linecap="square" stroke-linejoin="bevel" width="69.12" height="23.0399999999993"/><rect id="shape03" transform="matrix(1 0 0 -1 560.640012207031 123.079999999997)" fill="#000000" stroke="#553d35" stroke-width="0" stroke-linecap="square" stroke-linejoin="bevel" width="69.12" height="5.75999999999691"/><rect id="shape04" transform="matrix(1 0 0 -1 560.640012207031 596.983984250065)" fill="#000000" stroke-opacity="0" stroke="#000000" stroke-width="0" stroke-linecap="square" stroke-linejoin="bevel" width="69.12" height="23.0399999999993"/><rect id="shape011" transform="matrix(1 0 0 -1 560.640012207031 618.583982662198)" fill="#000000" stroke="#553d35" stroke-width="0" stroke-linecap="square" stroke-linejoin="bevel" width="69.12" height="5.75999999999691"/><path id="shape2" transform="translate(561.600012207031, 163.2)" fill="none" stroke="#000000" stroke-width="3.6" stroke-linecap="square" stroke-linejoin="bevel" d="M0 31.2L33.6 0L67.2 33.6" sodipodi:nodetypes="ccc"/><path id="shape3" transform="translate(561.120012207031, 131.52)" fill="#000000" fill-rule="evenodd" stroke="#000000" stroke-width="3.6" stroke-linecap="square" stroke-linejoin="bevel" d="M33.12 15.84L0 48.48L0 1.44L67.2 0L68.16 52.32L33.12 15.84" sodipodi:nodetypes="cccccc"/><path id="shape4" transform="translate(595.200012207031, 618.240000000002)" fill="none" stroke="#000000" stroke-width="3.6" stroke-linecap="square" stroke-linejoin="miter" stroke-miterlimit="2" d="M0 0L0 150.72" sodipodi:nodetypes="cc"/>
</svg>
